<mxfile host="65bd71144e">
    <diagram id="XHtw6rH_fUEW3_nwCUFg" name="Home">
        <mxGraphModel dx="1386" dy="1147" grid="1" gridSize="10" guides="1" tooltips="1" connect="1" arrows="1" fold="1" page="0" pageScale="1" pageWidth="827" pageHeight="1169" math="0" shadow="0">
            <root>
                <mxCell id="0"/>
                <mxCell id="1" parent="0"/>
                <mxCell id="2" style="edgeStyle=orthogonalEdgeStyle;rounded=0;orthogonalLoop=1;jettySize=auto;html=1;exitX=0.5;exitY=1;exitDx=0;exitDy=0;entryX=0;entryY=0.5;entryDx=0;entryDy=0;" edge="1" parent="1" source="3" target="4">
                    <mxGeometry relative="1" as="geometry"/>
                </mxCell>
                <mxCell id="3" value="FritzBox (GW)" style="rounded=0;whiteSpace=wrap;html=1;" vertex="1" parent="1">
                    <mxGeometry x="40" y="-240" width="120" height="60" as="geometry"/>
                </mxCell>
                <UserObject label="RootSwitch" link="data:page/id,mzIWMM-srSQq7x5-y8ZX" id="4">
                    <mxCell style="rounded=0;whiteSpace=wrap;html=1;" vertex="1" parent="1">
                        <mxGeometry x="360" y="-240" width="120" height="60" as="geometry"/>
                    </mxCell>
                </UserObject>
                <mxCell id="5" style="edgeStyle=orthogonalEdgeStyle;rounded=0;orthogonalLoop=1;jettySize=auto;html=1;exitX=0;exitY=0.5;exitDx=0;exitDy=0;entryX=1;entryY=0.5;entryDx=0;entryDy=0;" edge="1" parent="1" source="6" target="4">
                    <mxGeometry relative="1" as="geometry"/>
                </mxCell>
                <UserObject label="ums1" link="data:page/id,MXAV4a4PE0T6H0ZzpNUS" id="6">
                    <mxCell style="rounded=0;whiteSpace=wrap;html=1;" vertex="1" parent="1">
                        <mxGeometry x="680" y="-240" width="200" height="60" as="geometry"/>
                    </mxCell>
                </UserObject>
                <mxCell id="7" style="edgeStyle=orthogonalEdgeStyle;rounded=0;orthogonalLoop=1;jettySize=auto;html=1;exitX=0;exitY=0.5;exitDx=0;exitDy=0;entryX=0.75;entryY=1;entryDx=0;entryDy=0;" edge="1" parent="1" source="8" target="6">
                    <mxGeometry relative="1" as="geometry"/>
                </mxCell>
                <mxCell id="8" value="rpi4" style="rounded=0;whiteSpace=wrap;html=1;" vertex="1" parent="1">
                    <mxGeometry x="880" y="-160" width="120" height="60" as="geometry"/>
                </mxCell>
                <mxCell id="9" style="edgeStyle=orthogonalEdgeStyle;rounded=0;orthogonalLoop=1;jettySize=auto;html=1;exitX=0;exitY=0.5;exitDx=0;exitDy=0;entryX=0.5;entryY=1;entryDx=0;entryDy=0;" edge="1" parent="1" source="10" target="6">
                    <mxGeometry relative="1" as="geometry"/>
                </mxCell>
                <mxCell id="10" value="snappy" style="rounded=0;whiteSpace=wrap;html=1;" vertex="1" parent="1">
                    <mxGeometry x="880" y="-40" width="120" height="60" as="geometry"/>
                </mxCell>
                <mxCell id="11" style="edgeStyle=orthogonalEdgeStyle;rounded=0;orthogonalLoop=1;jettySize=auto;html=1;exitX=0;exitY=0.5;exitDx=0;exitDy=0;entryX=0.25;entryY=1;entryDx=0;entryDy=0;" edge="1" parent="1" source="12" target="6">
                    <mxGeometry relative="1" as="geometry"/>
                </mxCell>
                <mxCell id="12" value="fileserver" style="rounded=0;whiteSpace=wrap;html=1;" vertex="1" parent="1">
                    <mxGeometry x="880" y="80" width="120" height="60" as="geometry"/>
                </mxCell>
            </root>
        </mxGraphModel>
    </diagram>
    <diagram id="MXAV4a4PE0T6H0ZzpNUS" name="ums1">
        <mxGraphModel dx="1786" dy="1147" grid="1" gridSize="10" guides="1" tooltips="1" connect="1" arrows="1" fold="1" page="0" pageScale="1" pageWidth="827" pageHeight="1169" math="0" shadow="0">
            <root>
                <mxCell id="0"/>
                <mxCell id="1" parent="0"/>
                <mxCell id="zpAiZH63grD79veLfH6P-1" value="" style="rounded=0;whiteSpace=wrap;html=1;" vertex="1" parent="1">
                    <mxGeometry x="-90" y="-10" width="300" height="60" as="geometry"/>
                </mxCell>
                <mxCell id="WiKksELs3-eSrbhDByY9-2" style="edgeStyle=none;html=1;exitX=0.5;exitY=1;exitDx=0;exitDy=0;entryX=0.5;entryY=0;entryDx=0;entryDy=0;" edge="1" parent="1" source="zpAiZH63grD79veLfH6P-2" target="WiKksELs3-eSrbhDByY9-1">
                    <mxGeometry relative="1" as="geometry"/>
                </mxCell>
                <mxCell id="zpAiZH63grD79veLfH6P-2" value="" style="whiteSpace=wrap;html=1;aspect=fixed;" vertex="1" parent="1">
                    <mxGeometry x="-80" y="-2.5" width="45" height="45" as="geometry"/>
                </mxCell>
                <mxCell id="zpAiZH63grD79veLfH6P-3" value="" style="whiteSpace=wrap;html=1;aspect=fixed;" vertex="1" parent="1">
                    <mxGeometry x="-20" y="-2.5" width="45" height="45" as="geometry"/>
                </mxCell>
                <mxCell id="zpAiZH63grD79veLfH6P-4" value="" style="whiteSpace=wrap;html=1;aspect=fixed;" vertex="1" parent="1">
                    <mxGeometry x="40" y="-2.5" width="45" height="45" as="geometry"/>
                </mxCell>
                <mxCell id="zpAiZH63grD79veLfH6P-5" value="" style="whiteSpace=wrap;html=1;aspect=fixed;" vertex="1" parent="1">
                    <mxGeometry x="100" y="-2.5" width="45" height="45" as="geometry"/>
                </mxCell>
                <mxCell id="zpAiZH63grD79veLfH6P-6" value="" style="whiteSpace=wrap;html=1;aspect=fixed;" vertex="1" parent="1">
                    <mxGeometry x="157.5" y="-2.5" width="45" height="45" as="geometry"/>
                </mxCell>
                <mxCell id="WiKksELs3-eSrbhDByY9-1" value="Uplink" style="rounded=0;whiteSpace=wrap;html=1;" vertex="1" parent="1">
                    <mxGeometry x="-117" y="120" width="120" height="60" as="geometry"/>
                </mxCell>
            </root>
        </mxGraphModel>
    </diagram>
    <diagram id="mzIWMM-srSQq7x5-y8ZX" name="rootswitch">
        <mxGraphModel dx="1786" dy="1147" grid="1" gridSize="10" guides="1" tooltips="1" connect="1" arrows="1" fold="1" page="0" pageScale="1" pageWidth="827" pageHeight="1169" math="0" shadow="0">
            <root>
                <mxCell id="0"/>
                <mxCell id="1" parent="0"/>
                <mxCell id="9C6apZ7quDdUet5nFpVt-1" value="" style="rounded=0;whiteSpace=wrap;html=1;" vertex="1" parent="1">
                    <mxGeometry x="-90" y="-10" width="490" height="60" as="geometry"/>
                </mxCell>
                <mxCell id="9C6apZ7quDdUet5nFpVt-2" value="" style="whiteSpace=wrap;html=1;aspect=fixed;" vertex="1" parent="1">
                    <mxGeometry x="-80" y="-2.5" width="45" height="45" as="geometry"/>
                </mxCell>
                <mxCell id="9C6apZ7quDdUet5nFpVt-3" value="" style="whiteSpace=wrap;html=1;aspect=fixed;" vertex="1" parent="1">
                    <mxGeometry x="-20" y="-2.5" width="45" height="45" as="geometry"/>
                </mxCell>
                <mxCell id="9C6apZ7quDdUet5nFpVt-4" value="" style="whiteSpace=wrap;html=1;aspect=fixed;" vertex="1" parent="1">
                    <mxGeometry x="40" y="-2.5" width="45" height="45" as="geometry"/>
                </mxCell>
                <mxCell id="9C6apZ7quDdUet5nFpVt-5" value="" style="whiteSpace=wrap;html=1;aspect=fixed;" vertex="1" parent="1">
                    <mxGeometry x="100" y="-2.5" width="45" height="45" as="geometry"/>
                </mxCell>
                <mxCell id="9C6apZ7quDdUet5nFpVt-6" value="" style="whiteSpace=wrap;html=1;aspect=fixed;" vertex="1" parent="1">
                    <mxGeometry x="157.5" y="-2.5" width="45" height="45" as="geometry"/>
                </mxCell>
                <mxCell id="9C6apZ7quDdUet5nFpVt-7" value="" style="whiteSpace=wrap;html=1;aspect=fixed;" vertex="1" parent="1">
                    <mxGeometry x="220" y="-2.5" width="45" height="45" as="geometry"/>
                </mxCell>
                <mxCell id="9C6apZ7quDdUet5nFpVt-8" value="" style="whiteSpace=wrap;html=1;aspect=fixed;" vertex="1" parent="1">
                    <mxGeometry x="280" y="-2.5" width="45" height="45" as="geometry"/>
                </mxCell>
                <mxCell id="9C6apZ7quDdUet5nFpVt-9" value="" style="whiteSpace=wrap;html=1;aspect=fixed;" vertex="1" parent="1">
                    <mxGeometry x="340" y="-2.5" width="45" height="45" as="geometry"/>
                </mxCell>
            </root>
        </mxGraphModel>
    </diagram>
</mxfile>